<?xml version="1.0" encoding="UTF-8" standalone="no"?>
<!DOCTYPE svg PUBLIC "-//W3C//DTD SVG 1.1//EN"
 "http://www.w3.org/Graphics/SVG/1.1/DTD/svg11.dtd">
<!-- Generated by graphviz version 2.43.0 (0)
 -->
<!-- Title: %3 Pages: 1 -->
<svg width="3417pt" height="1899pt"
 viewBox="0.00 0.00 3417.00 1899.00" xmlns="http://www.w3.org/2000/svg" xmlns:xlink="http://www.w3.org/1999/xlink">
<g id="graph0" class="graph" transform="scale(1 1) rotate(0) translate(4 1895)">
<title>%3</title>
<polygon fill="white" stroke="transparent" points="-4,4 -4,-1895 3413,-1895 3413,4 -4,4"/>
<g id="clust1" class="cluster">
<title>cluster_0</title>
<polygon fill="none" stroke="black" points="8,-8 8,-1883 3401,-1883 3401,-8 8,-8"/>
<text text-anchor="middle" x="1704.5" y="-1867.8" font-family="Times,serif" font-size="14.00">&lt;program&gt;</text>
</g>
<!-- node0 -->
<g id="node1" class="node">
<title>node0</title>
<ellipse fill="green" stroke="black" cx="1440" cy="-1834" rx="116.18" ry="18"/>
<text text-anchor="middle" x="1440" y="-1830.3" font-family="Times,serif" font-size="14.00">Jump Push(value=rbp)</text>
</g>
<!-- node1 -->
<g id="node2" class="node">
<title>node1</title>
<ellipse fill="none" stroke="black" cx="1440" cy="-1762" rx="223.66" ry="18"/>
<text text-anchor="middle" x="1440" y="-1758.3" font-family="Times,serif" font-size="14.00">Jump (rbp = (rsp &#45; ConstantKnown(value=8)))</text>
</g>
<!-- node0&#45;&gt;node1 -->
<g id="edge1" class="edge">
<title>node0&#45;&gt;node1</title>
<path fill="none" stroke="black" d="M1440,-1815.7C1440,-1807.98 1440,-1798.71 1440,-1790.11"/>
<polygon fill="black" stroke="black" points="1443.5,-1790.1 1440,-1780.1 1436.5,-1790.1 1443.5,-1790.1"/>
</g>
<!-- node2 -->
<g id="node3" class="node">
<title>node2</title>
<ellipse fill="none" stroke="black" cx="1440" cy="-1690" rx="81.79" ry="18"/>
<text text-anchor="middle" x="1440" y="-1686.3" font-family="Times,serif" font-size="14.00">Jump (rsp &#45;= 8)</text>
</g>
<!-- node1&#45;&gt;node2 -->
<g id="edge2" class="edge">
<title>node1&#45;&gt;node2</title>
<path fill="none" stroke="black" d="M1440,-1743.7C1440,-1735.98 1440,-1726.71 1440,-1718.11"/>
<polygon fill="black" stroke="black" points="1443.5,-1718.1 1440,-1708.1 1436.5,-1718.1 1443.5,-1718.1"/>
</g>
<!-- node3 -->
<g id="node4" class="node">
<title>node3</title>
<ellipse fill="none" stroke="black" cx="1440" cy="-1618" rx="151.37" ry="18"/>
<text text-anchor="middle" x="1440" y="-1614.3" font-family="Times,serif" font-size="14.00">Jump (VReg(0533377b) = rbx)</text>
</g>
<!-- node2&#45;&gt;node3 -->
<g id="edge3" class="edge">
<title>node2&#45;&gt;node3</title>
<path fill="none" stroke="black" d="M1440,-1671.7C1440,-1663.98 1440,-1654.71 1440,-1646.11"/>
<polygon fill="black" stroke="black" points="1443.5,-1646.1 1440,-1636.1 1436.5,-1646.1 1443.5,-1646.1"/>
</g>
<!-- node4 -->
<g id="node5" class="node">
<title>node4</title>
<ellipse fill="none" stroke="black" cx="1440" cy="-1546" rx="150.57" ry="18"/>
<text text-anchor="middle" x="1440" y="-1542.3" font-family="Times,serif" font-size="14.00">Jump (VReg(1cd201a8) = r12)</text>
</g>
<!-- node3&#45;&gt;node4 -->
<g id="edge4" class="edge">
<title>node3&#45;&gt;node4</title>
<path fill="none" stroke="black" d="M1440,-1599.7C1440,-1591.98 1440,-1582.71 1440,-1574.11"/>
<polygon fill="black" stroke="black" points="1443.5,-1574.1 1440,-1564.1 1436.5,-1574.1 1443.5,-1574.1"/>
</g>
<!-- node5 -->
<g id="node6" class="node">
<title>node5</title>
<ellipse fill="none" stroke="black" cx="1440" cy="-1474" rx="152.17" ry="18"/>
<text text-anchor="middle" x="1440" y="-1470.3" font-family="Times,serif" font-size="14.00">Jump (VReg(7db82169) = r13)</text>
</g>
<!-- node4&#45;&gt;node5 -->
<g id="edge5" class="edge">
<title>node4&#45;&gt;node5</title>
<path fill="none" stroke="black" d="M1440,-1527.7C1440,-1519.98 1440,-1510.71 1440,-1502.11"/>
<polygon fill="black" stroke="black" points="1443.5,-1502.1 1440,-1492.1 1436.5,-1502.1 1443.5,-1502.1"/>
</g>
<!-- node6 -->
<g id="node7" class="node">
<title>node6</title>
<ellipse fill="none" stroke="black" cx="1440" cy="-1402" rx="148.67" ry="18"/>
<text text-anchor="middle" x="1440" y="-1398.3" font-family="Times,serif" font-size="14.00">Jump (VReg(1992eaf4) = r14)</text>
</g>
<!-- node5&#45;&gt;node6 -->
<g id="edge6" class="edge">
<title>node5&#45;&gt;node6</title>
<path fill="none" stroke="black" d="M1440,-1455.7C1440,-1447.98 1440,-1438.71 1440,-1430.11"/>
<polygon fill="black" stroke="black" points="1443.5,-1430.1 1440,-1420.1 1436.5,-1430.1 1443.5,-1430.1"/>
</g>
<!-- node7 -->
<g id="node8" class="node">
<title>node7</title>
<ellipse fill="none" stroke="black" cx="1440" cy="-1330" rx="149.47" ry="18"/>
<text text-anchor="middle" x="1440" y="-1326.3" font-family="Times,serif" font-size="14.00">Jump (VReg(0f74e835) = r15)</text>
</g>
<!-- node6&#45;&gt;node7 -->
<g id="edge7" class="edge">
<title>node6&#45;&gt;node7</title>
<path fill="none" stroke="black" d="M1440,-1383.7C1440,-1375.98 1440,-1366.71 1440,-1358.11"/>
<polygon fill="black" stroke="black" points="1443.5,-1358.1 1440,-1348.1 1436.5,-1358.1 1443.5,-1358.1"/>
</g>
<!-- node8 -->
<g id="node9" class="node">
<title>node8</title>
<ellipse fill="none" stroke="black" cx="1440" cy="-1258" rx="358.24" ry="18"/>
<text text-anchor="middle" x="1440" y="-1254.3" font-family="Times,serif" font-size="14.00">Jump (MemoryAccess(destination=(rbp &#45; ConstantKnown(value=0))) = rdi)</text>
</g>
<!-- node7&#45;&gt;node8 -->
<g id="edge8" class="edge">
<title>node7&#45;&gt;node8</title>
<path fill="none" stroke="black" d="M1440,-1311.7C1440,-1303.98 1440,-1294.71 1440,-1286.11"/>
<polygon fill="black" stroke="black" points="1443.5,-1286.1 1440,-1276.1 1436.5,-1286.1 1443.5,-1286.1"/>
</g>
<!-- node17 -->
<g id="node10" class="node">
<title>node17</title>
<ellipse fill="none" stroke="black" cx="1440" cy="-1186" rx="258.85" ry="18"/>
<text text-anchor="middle" x="1440" y="-1182.3" font-family="Times,serif" font-size="14.00">Jump (VReg(3f28bd56) = ConstantKnown(value=54))</text>
</g>
<!-- node8&#45;&gt;node17 -->
<g id="edge9" class="edge">
<title>node8&#45;&gt;node17</title>
<path fill="none" stroke="black" d="M1440,-1239.7C1440,-1231.98 1440,-1222.71 1440,-1214.11"/>
<polygon fill="black" stroke="black" points="1443.5,-1214.1 1440,-1204.1 1436.5,-1214.1 1443.5,-1214.1"/>
</g>
<!-- node18 -->
<g id="node20" class="node">
<title>node18</title>
<ellipse fill="none" stroke="black" cx="1440" cy="-1114" rx="254.55" ry="18"/>
<text text-anchor="middle" x="1440" y="-1110.3" font-family="Times,serif" font-size="14.00">Jump (VReg(31e3250d) = ConstantKnown(value=0))</text>
</g>
<!-- node17&#45;&gt;node18 -->
<g id="edge18" class="edge">
<title>node17&#45;&gt;node18</title>
<path fill="none" stroke="black" d="M1440,-1167.7C1440,-1159.98 1440,-1150.71 1440,-1142.11"/>
<polygon fill="black" stroke="black" points="1443.5,-1142.1 1440,-1132.1 1436.5,-1142.1 1443.5,-1142.1"/>
</g>
<!-- node9 -->
<g id="node11" class="node">
<title>node9</title>
<ellipse fill="none" stroke="black" cx="2428" cy="-610" rx="151.37" ry="18"/>
<text text-anchor="middle" x="2428" y="-606.3" font-family="Times,serif" font-size="14.00">Jump (rbx = VReg(0533377b))</text>
</g>
<!-- node10 -->
<g id="node12" class="node">
<title>node10</title>
<ellipse fill="none" stroke="black" cx="2428" cy="-538" rx="150.57" ry="18"/>
<text text-anchor="middle" x="2428" y="-534.3" font-family="Times,serif" font-size="14.00">Jump (r12 = VReg(1cd201a8))</text>
</g>
<!-- node9&#45;&gt;node10 -->
<g id="edge10" class="edge">
<title>node9&#45;&gt;node10</title>
<path fill="none" stroke="black" d="M2428,-591.7C2428,-583.98 2428,-574.71 2428,-566.11"/>
<polygon fill="black" stroke="black" points="2431.5,-566.1 2428,-556.1 2424.5,-566.1 2431.5,-566.1"/>
</g>
<!-- node11 -->
<g id="node13" class="node">
<title>node11</title>
<ellipse fill="none" stroke="black" cx="2428" cy="-466" rx="152.17" ry="18"/>
<text text-anchor="middle" x="2428" y="-462.3" font-family="Times,serif" font-size="14.00">Jump (r13 = VReg(7db82169))</text>
</g>
<!-- node10&#45;&gt;node11 -->
<g id="edge11" class="edge">
<title>node10&#45;&gt;node11</title>
<path fill="none" stroke="black" d="M2428,-519.7C2428,-511.98 2428,-502.71 2428,-494.11"/>
<polygon fill="black" stroke="black" points="2431.5,-494.1 2428,-484.1 2424.5,-494.1 2431.5,-494.1"/>
</g>
<!-- node12 -->
<g id="node14" class="node">
<title>node12</title>
<ellipse fill="none" stroke="black" cx="2428" cy="-394" rx="148.67" ry="18"/>
<text text-anchor="middle" x="2428" y="-390.3" font-family="Times,serif" font-size="14.00">Jump (r14 = VReg(1992eaf4))</text>
</g>
<!-- node11&#45;&gt;node12 -->
<g id="edge12" class="edge">
<title>node11&#45;&gt;node12</title>
<path fill="none" stroke="black" d="M2428,-447.7C2428,-439.98 2428,-430.71 2428,-422.11"/>
<polygon fill="black" stroke="black" points="2431.5,-422.1 2428,-412.1 2424.5,-422.1 2431.5,-422.1"/>
</g>
<!-- node13 -->
<g id="node15" class="node">
<title>node13</title>
<ellipse fill="none" stroke="black" cx="2428" cy="-322" rx="149.47" ry="18"/>
<text text-anchor="middle" x="2428" y="-318.3" font-family="Times,serif" font-size="14.00">Jump (r15 = VReg(0f74e835))</text>
</g>
<!-- node12&#45;&gt;node13 -->
<g id="edge13" class="edge">
<title>node12&#45;&gt;node13</title>
<path fill="none" stroke="black" d="M2428,-375.7C2428,-367.98 2428,-358.71 2428,-350.11"/>
<polygon fill="black" stroke="black" points="2431.5,-350.1 2428,-340.1 2424.5,-350.1 2431.5,-350.1"/>
</g>
<!-- node14 -->
<g id="node16" class="node">
<title>node14</title>
<ellipse fill="none" stroke="black" cx="2428" cy="-250" rx="151.37" ry="18"/>
<text text-anchor="middle" x="2428" y="-246.3" font-family="Times,serif" font-size="14.00">Jump (rax = VReg(03276732))</text>
</g>
<!-- node13&#45;&gt;node14 -->
<g id="edge14" class="edge">
<title>node13&#45;&gt;node14</title>
<path fill="none" stroke="black" d="M2428,-303.7C2428,-295.98 2428,-286.71 2428,-278.11"/>
<polygon fill="black" stroke="black" points="2431.5,-278.1 2428,-268.1 2424.5,-278.1 2431.5,-278.1"/>
</g>
<!-- node15 -->
<g id="node17" class="node">
<title>node15</title>
<ellipse fill="none" stroke="black" cx="2428" cy="-178" rx="228.56" ry="18"/>
<text text-anchor="middle" x="2428" y="-174.3" font-family="Times,serif" font-size="14.00">Jump (rsp = (rbp + ConstantKnown(value=8)))</text>
</g>
<!-- node14&#45;&gt;node15 -->
<g id="edge15" class="edge">
<title>node14&#45;&gt;node15</title>
<path fill="none" stroke="black" d="M2428,-231.7C2428,-223.98 2428,-214.71 2428,-206.11"/>
<polygon fill="black" stroke="black" points="2431.5,-206.1 2428,-196.1 2424.5,-206.1 2431.5,-206.1"/>
</g>
<!-- node16 -->
<g id="node18" class="node">
<title>node16</title>
<ellipse fill="none" stroke="black" cx="2428" cy="-106" rx="122.38" ry="18"/>
<text text-anchor="middle" x="2428" y="-102.3" font-family="Times,serif" font-size="14.00">Jump Pop(register=rbp)</text>
</g>
<!-- node15&#45;&gt;node16 -->
<g id="edge16" class="edge">
<title>node15&#45;&gt;node16</title>
<path fill="none" stroke="black" d="M2428,-159.7C2428,-151.98 2428,-142.71 2428,-134.11"/>
<polygon fill="black" stroke="black" points="2431.5,-134.1 2428,-124.1 2424.5,-134.1 2431.5,-134.1"/>
</g>
<!-- node34 -->
<g id="node19" class="node">
<title>node34</title>
<ellipse fill="red" stroke="black" cx="2428" cy="-34" rx="249.66" ry="18"/>
<text text-anchor="middle" x="2428" y="-30.3" font-family="Times,serif" font-size="14.00">Final Return(resultSize=ConstantKnown(value=1))</text>
</g>
<!-- node16&#45;&gt;node34 -->
<g id="edge17" class="edge">
<title>node16&#45;&gt;node34</title>
<path fill="none" stroke="black" d="M2428,-87.7C2428,-79.98 2428,-70.71 2428,-62.11"/>
<polygon fill="black" stroke="black" points="2431.5,-62.1 2428,-52.1 2424.5,-62.1 2431.5,-62.1"/>
</g>
<!-- node19 -->
<g id="node21" class="node">
<title>node19</title>
<ellipse fill="none" stroke="black" cx="1440" cy="-1042" rx="252.36" ry="18"/>
<text text-anchor="middle" x="1440" y="-1038.3" font-family="Times,serif" font-size="14.00">Jump (VReg(19fe4644) = ConstantKnown(value=1))</text>
</g>
<!-- node18&#45;&gt;node19 -->
<g id="edge19" class="edge">
<title>node18&#45;&gt;node19</title>
<path fill="none" stroke="black" d="M1440,-1095.7C1440,-1087.98 1440,-1078.71 1440,-1070.11"/>
<polygon fill="black" stroke="black" points="1443.5,-1070.1 1440,-1060.1 1436.5,-1070.1 1443.5,-1070.1"/>
</g>
<!-- node26 -->
<g id="node22" class="node">
<title>node26</title>
<ellipse fill="none" stroke="black" cx="1440" cy="-970" rx="377.73" ry="18"/>
<text text-anchor="middle" x="1440" y="-966.3" font-family="Times,serif" font-size="14.00">Conditional (VReg(19fe4644) &lt; (VReg(3f28bd56) + ConstantKnown(value=1)))</text>
</g>
<!-- node19&#45;&gt;node26 -->
<g id="edge20" class="edge">
<title>node19&#45;&gt;node26</title>
<path fill="none" stroke="black" d="M1440,-1023.7C1440,-1015.98 1440,-1006.71 1440,-998.11"/>
<polygon fill="black" stroke="black" points="1443.5,-998.1 1440,-988.1 1436.5,-998.1 1443.5,-998.1"/>
</g>
<!-- node20 -->
<g id="node23" class="node">
<title>node20</title>
<ellipse fill="none" stroke="black" cx="943" cy="-898" rx="253.46" ry="18"/>
<text text-anchor="middle" x="943" y="-894.3" font-family="Times,serif" font-size="14.00">Jump (VReg(21d8bcbe) = ConstantKnown(value=0))</text>
</g>
<!-- node26&#45;&gt;node20 -->
<g id="edge30" class="edge">
<title>node26&#45;&gt;node20</title>
<path fill="none" stroke="green" d="M1325.04,-952.81C1246.13,-941.69 1141.66,-926.98 1061.91,-915.75"/>
<polygon fill="green" stroke="green" points="1062.21,-912.26 1051.82,-914.33 1061.23,-919.19 1062.21,-912.26"/>
</g>
<!-- node27 -->
<g id="node29" class="node">
<title>node27</title>
<ellipse fill="none" stroke="black" cx="1760" cy="-898" rx="254.25" ry="18"/>
<text text-anchor="middle" x="1760" y="-894.3" font-family="Times,serif" font-size="14.00">Jump (VReg(5be067de) = ConstantKnown(value=5))</text>
</g>
<!-- node26&#45;&gt;node27 -->
<g id="edge31" class="edge">
<title>node26&#45;&gt;node27</title>
<path fill="none" stroke="red" d="M1516.24,-952.32C1564.23,-941.82 1626.23,-928.26 1675.69,-917.44"/>
<polygon fill="red" stroke="red" points="1676.7,-920.8 1685.72,-915.25 1675.2,-913.97 1676.7,-920.8"/>
</g>
<!-- node24 -->
<g id="node24" class="node">
<title>node24</title>
<ellipse fill="none" stroke="black" cx="718" cy="-826" rx="378.83" ry="18"/>
<text text-anchor="middle" x="718" y="-822.3" font-family="Times,serif" font-size="14.00">Conditional (VReg(21d8bcbe) &lt; (VReg(3f28bd56) + ConstantKnown(value=1)))</text>
</g>
<!-- node20&#45;&gt;node24 -->
<g id="edge21" class="edge">
<title>node20&#45;&gt;node24</title>
<path fill="none" stroke="black" d="M889.39,-880.32C857.21,-870.31 816.08,-857.51 782.18,-846.97"/>
<polygon fill="black" stroke="black" points="782.96,-843.54 772.37,-843.91 780.88,-850.23 782.96,-843.54"/>
</g>
<!-- node25 -->
<g id="node27" class="node">
<title>node25</title>
<ellipse fill="none" stroke="black" cx="367" cy="-610" rx="347.94" ry="18"/>
<text text-anchor="middle" x="367" y="-606.3" font-family="Times,serif" font-size="14.00">Jump (VReg(19fe4644) = (VReg(19fe4644) + ConstantKnown(value=1)))</text>
</g>
<!-- node24&#45;&gt;node25 -->
<g id="edge28" class="edge">
<title>node24&#45;&gt;node25</title>
<path fill="none" stroke="red" d="M460.29,-812.78C287.16,-798.45 81.11,-767.36 27,-700 16.98,-687.53 16.59,-676.15 27,-664 42.95,-645.37 83.63,-633.24 131.55,-625.36"/>
<polygon fill="red" stroke="red" points="132.21,-628.8 141.55,-623.79 131.13,-621.88 132.21,-628.8"/>
</g>
<!-- node23 -->
<g id="node28" class="node">
<title>node23</title>
<ellipse fill="none" stroke="black" cx="718" cy="-754" rx="339.04" ry="18"/>
<text text-anchor="middle" x="718" y="-750.3" font-family="Times,serif" font-size="14.00">Conditional ((VReg(21d8bcbe) * VReg(19fe4644)) == VReg(3f28bd56))</text>
</g>
<!-- node24&#45;&gt;node23 -->
<g id="edge27" class="edge">
<title>node24&#45;&gt;node23</title>
<path fill="none" stroke="green" d="M718,-807.7C718,-799.98 718,-790.71 718,-782.11"/>
<polygon fill="green" stroke="green" points="721.5,-782.1 718,-772.1 714.5,-782.1 721.5,-782.1"/>
</g>
<!-- node21 -->
<g id="node25" class="node">
<title>node21</title>
<ellipse fill="none" stroke="black" cx="1069" cy="-682" rx="352.04" ry="18"/>
<text text-anchor="middle" x="1069" y="-678.3" font-family="Times,serif" font-size="14.00">Jump (VReg(31e3250d) = (VReg(31e3250d) + ConstantKnown(value=1)))</text>
</g>
<!-- node21&#45;&gt;node24 -->
<g id="edge22" class="edge">
<title>node21&#45;&gt;node24</title>
<path fill="none" stroke="black" d="M1074.21,-700.08C1079.11,-719.94 1083.36,-752.47 1066,-772 1049.76,-790.27 1009.69,-802.29 962.28,-810.2"/>
<polygon fill="black" stroke="black" points="961.7,-806.74 952.38,-811.77 962.8,-813.66 961.7,-806.74"/>
</g>
<!-- node22 -->
<g id="node26" class="node">
<title>node22</title>
<ellipse fill="none" stroke="black" cx="367" cy="-682" rx="331.44" ry="18"/>
<text text-anchor="middle" x="367" y="-678.3" font-family="Times,serif" font-size="14.00">Conditional ((VReg(21d8bcbe) * VReg(19fe4644)) &gt; VReg(3f28bd56))</text>
</g>
<!-- node22&#45;&gt;node24 -->
<g id="edge24" class="edge">
<title>node22&#45;&gt;node24</title>
<path fill="none" stroke="red" d="M361.79,-700.08C356.89,-719.94 352.64,-752.47 370,-772 386.24,-790.27 426.31,-802.29 473.72,-810.2"/>
<polygon fill="red" stroke="red" points="473.2,-813.66 483.62,-811.77 474.3,-806.74 473.2,-813.66"/>
</g>
<!-- node22&#45;&gt;node25 -->
<g id="edge23" class="edge">
<title>node22&#45;&gt;node25</title>
<path fill="none" stroke="green" d="M367,-663.7C367,-655.98 367,-646.71 367,-638.11"/>
<polygon fill="green" stroke="green" points="370.5,-638.1 367,-628.1 363.5,-638.1 370.5,-638.1"/>
</g>
<!-- node25&#45;&gt;node26 -->
<g id="edge29" class="edge">
<title>node25&#45;&gt;node26</title>
<path fill="none" stroke="black" d="M687.73,-616.99C990.73,-624.18 1402.94,-638.57 1430,-664 1459.01,-691.26 1440,-713.2 1440,-753 1440,-827 1440,-827 1440,-827 1440,-867 1440,-913.35 1440,-941.92"/>
<polygon fill="black" stroke="black" points="1436.5,-941.95 1440,-951.95 1443.5,-941.95 1436.5,-941.95"/>
</g>
<!-- node23&#45;&gt;node21 -->
<g id="edge25" class="edge">
<title>node23&#45;&gt;node21</title>
<path fill="none" stroke="green" d="M800.74,-736.5C853.4,-726 921.7,-712.38 976.2,-701.51"/>
<polygon fill="green" stroke="green" points="977.09,-704.9 986.21,-699.51 975.72,-698.03 977.09,-704.9"/>
</g>
<!-- node23&#45;&gt;node22 -->
<g id="edge26" class="edge">
<title>node23&#45;&gt;node22</title>
<path fill="none" stroke="red" d="M635.26,-736.5C582.51,-725.98 514.05,-712.33 459.5,-701.45"/>
<polygon fill="red" stroke="red" points="459.98,-697.97 449.49,-699.45 458.61,-704.84 459.98,-697.97"/>
</g>
<!-- node32 -->
<g id="node30" class="node">
<title>node32</title>
<ellipse fill="none" stroke="black" cx="1807" cy="-826" rx="289.45" ry="18"/>
<text text-anchor="middle" x="1807" y="-822.3" font-family="Times,serif" font-size="14.00">Conditional (VReg(5be067de) &gt; ConstantKnown(value=63))</text>
</g>
<!-- node27&#45;&gt;node32 -->
<g id="edge32" class="edge">
<title>node27&#45;&gt;node32</title>
<path fill="none" stroke="black" d="M1771.62,-879.7C1777.14,-871.47 1783.85,-861.48 1789.93,-852.42"/>
<polygon fill="black" stroke="black" points="1792.85,-854.36 1795.52,-844.1 1787.04,-850.46 1792.85,-854.36"/>
</g>
<!-- node29 -->
<g id="node32" class="node">
<title>node29</title>
<ellipse fill="none" stroke="black" cx="2737" cy="-754" rx="289.45" ry="18"/>
<text text-anchor="middle" x="2737" y="-750.3" font-family="Times,serif" font-size="14.00">Conditional (VReg(5be067de) &gt; ConstantKnown(value=63))</text>
</g>
<!-- node32&#45;&gt;node29 -->
<g id="edge39" class="edge">
<title>node32&#45;&gt;node29</title>
<path fill="none" stroke="green" d="M1983.57,-811.71C2145.59,-799.51 2384.83,-781.51 2550.05,-769.07"/>
<polygon fill="green" stroke="green" points="2550.62,-772.54 2560.33,-768.3 2550.1,-765.56 2550.62,-772.54"/>
</g>
<!-- node31 -->
<g id="node35" class="node">
<title>node31</title>
<ellipse fill="none" stroke="black" cx="1807" cy="-754" rx="289.45" ry="18"/>
<text text-anchor="middle" x="1807" y="-750.3" font-family="Times,serif" font-size="14.00">Conditional (VReg(5be067de) &lt; ConstantKnown(value=32))</text>
</g>
<!-- node32&#45;&gt;node31 -->
<g id="edge40" class="edge">
<title>node32&#45;&gt;node31</title>
<path fill="none" stroke="red" d="M1807,-807.7C1807,-799.98 1807,-790.71 1807,-782.11"/>
<polygon fill="red" stroke="red" points="1810.5,-782.1 1807,-772.1 1803.5,-782.1 1810.5,-782.1"/>
</g>
<!-- node28 -->
<g id="node31" class="node">
<title>node28</title>
<ellipse fill="none" stroke="black" cx="3047" cy="-682" rx="346.34" ry="18"/>
<text text-anchor="middle" x="3047" y="-678.3" font-family="Times,serif" font-size="14.00">Jump (VReg(5be067de) = (VReg(5be067de) / ConstantKnown(value=2)))</text>
</g>
<!-- node28&#45;&gt;node29 -->
<g id="edge33" class="edge">
<title>node28&#45;&gt;node29</title>
<path fill="none" stroke="black" d="M2979.01,-699.67C2933.87,-710.12 2874.23,-723.6 2825.43,-734.4"/>
<polygon fill="black" stroke="black" points="2824.51,-731.01 2815.5,-736.59 2826.02,-737.85 2824.51,-731.01"/>
</g>
<!-- node29&#45;&gt;node28 -->
<g id="edge34" class="edge">
<title>node29&#45;&gt;node28</title>
<path fill="none" stroke="green" d="M2804.63,-736.41C2849.64,-725.99 2909.19,-712.53 2958.03,-701.72"/>
<polygon fill="green" stroke="green" points="2958.95,-705.1 2967.96,-699.53 2957.44,-698.27 2958.95,-705.1"/>
</g>
<!-- node33 -->
<g id="node33" class="node">
<title>node33</title>
<ellipse fill="none" stroke="black" cx="2428" cy="-682" rx="254.55" ry="18"/>
<text text-anchor="middle" x="2428" y="-678.3" font-family="Times,serif" font-size="14.00">Jump (VReg(03276732) = ConstantKnown(value=0))</text>
</g>
<!-- node29&#45;&gt;node33 -->
<g id="edge35" class="edge">
<title>node29&#45;&gt;node33</title>
<path fill="none" stroke="red" d="M2664.16,-736.5C2617.94,-726.03 2558.03,-712.46 2510.11,-701.6"/>
<polygon fill="red" stroke="red" points="2510.61,-698.13 2500.08,-699.33 2509.06,-704.95 2510.61,-698.13"/>
</g>
<!-- node33&#45;&gt;node9 -->
<g id="edge41" class="edge">
<title>node33&#45;&gt;node9</title>
<path fill="none" stroke="black" d="M2428,-663.7C2428,-655.98 2428,-646.71 2428,-638.11"/>
<polygon fill="black" stroke="black" points="2431.5,-638.1 2428,-628.1 2424.5,-638.1 2431.5,-638.1"/>
</g>
<!-- node30 -->
<g id="node34" class="node">
<title>node30</title>
<ellipse fill="none" stroke="black" cx="1807" cy="-682" rx="348.24" ry="18"/>
<text text-anchor="middle" x="1807" y="-678.3" font-family="Times,serif" font-size="14.00">Jump (VReg(5be067de) = (VReg(5be067de) * ConstantKnown(value=2)))</text>
</g>
<!-- node30&#45;&gt;node31 -->
<g id="edge36" class="edge">
<title>node30&#45;&gt;node31</title>
<path fill="none" stroke="black" d="M1812.9,-700.1C1813.7,-707.79 1813.94,-717.05 1813.6,-725.67"/>
<polygon fill="black" stroke="black" points="1810.11,-725.48 1812.92,-735.7 1817.09,-725.96 1810.11,-725.48"/>
</g>
<!-- node31&#45;&gt;node33 -->
<g id="edge38" class="edge">
<title>node31&#45;&gt;node33</title>
<path fill="none" stroke="red" d="M1940.22,-737.98C2043.02,-726.4 2184.8,-710.41 2289.02,-698.67"/>
<polygon fill="red" stroke="red" points="2289.44,-702.14 2298.99,-697.54 2288.66,-695.18 2289.44,-702.14"/>
</g>
<!-- node31&#45;&gt;node30 -->
<g id="edge37" class="edge">
<title>node31&#45;&gt;node30</title>
<path fill="none" stroke="green" d="M1801.08,-735.7C1800.29,-727.98 1800.06,-718.71 1800.4,-710.11"/>
<polygon fill="green" stroke="green" points="1803.9,-710.32 1801.1,-700.1 1796.92,-709.84 1803.9,-710.32"/>
</g>
</g>
</svg>
